# xmcd
#
# Track frame offsets: 
#        150
#        24372
#        50045
#        71607
#
# Disc length: 1362 seconds
#
# Revision: 0
# Processed by: cddbd v1.5.2PL0 Copyright (c) Steve Scherf et al.
# Submitted via: ExactAudioCopyFreeDBPlugin 1.0
#
DISCID=30055004
DTITLE=Blues Company - Old, New, Borrowed But Blues
DYEAR=2016
DGENRE=Blues
TTITLE0=Let's Work Together
TTITLE1=Honky Tonk Woman
TTITLE2=Fool
TTITLE3=The Blues Is Alright
EXTD=
EXTT0=
EXTT1=
EXTT2=
EXTT3=
PLAYORDER=
